<svg width="114" height="150" viewBox="0 0 114 150" fill="none" xmlns="http://www.w3.org/2000/svg">
<mask id="path-1-inside-1_130_283" fill="white">
<path d="M104 8.2228C109.523 8.2228 114 12.7 114 18.2228V110.695L86.1121 146.365H23.5154C17.9926 146.365 13.5154 141.888 13.5154 136.365V18.2228C13.5154 12.7 17.9926 8.2228 23.5154 8.2228H104Z"/>
</mask>
<path d="M104 8.2228C109.523 8.2228 114 12.7 114 18.2228V110.695L86.1121 146.365H23.5154C17.9926 146.365 13.5154 141.888 13.5154 136.365V18.2228C13.5154 12.7 17.9926 8.2228 23.5154 8.2228H104Z" fill="#C7A4D5"/>
<path d="M114 18.2228H115H114ZM114 110.695L114.788 111.311L115 111.04V110.695H114ZM86.1121 146.365V147.365H86.5996L86.8999 146.981L86.1121 146.365ZM13.5154 18.2228H12.5154H13.5154ZM104 8.2228V9.2228C108.97 9.2228 113 13.2522 113 18.2228H114H115C115 12.1477 110.075 7.2228 104 7.2228V8.2228ZM114 18.2228H113V110.695H114H115V18.2228H114ZM114 110.695L113.212 110.08L85.3243 145.749L86.1121 146.365L86.8999 146.981L114.788 111.311L114 110.695ZM86.1121 146.365V145.365H23.5154V146.365V147.365H86.1121V146.365ZM23.5154 146.365V145.365C18.5449 145.365 14.5154 141.336 14.5154 136.365H13.5154H12.5154C12.5154 142.441 17.4403 147.365 23.5154 147.365V146.365ZM13.5154 136.365H14.5154V18.2228H13.5154H12.5154V136.365H13.5154ZM13.5154 18.2228H14.5154C14.5154 13.2522 18.5449 9.2228 23.5154 9.2228V8.2228V7.2228C17.4403 7.2228 12.5154 12.1477 12.5154 18.2228H13.5154ZM23.5154 8.2228V9.2228H104V8.2228V7.2228H23.5154V8.2228Z" fill="black" mask="url(#path-1-inside-1_130_283)"/>
<path d="M81.3823 116.082L112.844 111.407L86.3945 145.173L81.3823 116.082Z" fill="#979393" stroke="black"/>
<mask id="path-4-inside-2_130_283" fill="white">
<path d="M90.4844 0C96.0072 0 100.484 4.47715 100.484 10V102.473L72.5967 138.143H10C4.47715 138.143 0 133.665 0 128.143V10C2.27147e-06 4.47715 4.47715 0 10 0H90.4844Z"/>
</mask>
<path d="M90.4844 0C96.0072 0 100.484 4.47715 100.484 10V102.473L72.5967 138.143H10C4.47715 138.143 0 133.665 0 128.143V10C2.27147e-06 4.47715 4.47715 0 10 0H90.4844Z" fill="#C7A4D5"/>
<path d="M100.484 10H101.484H100.484ZM100.484 102.473L101.272 103.089L101.484 102.817V102.473H100.484ZM72.5967 138.143V139.143H73.0842L73.3845 138.758L72.5967 138.143ZM0 10H-1H0ZM90.4844 0V1C95.4549 1 99.4844 5.02944 99.4844 10H100.484H101.484C101.484 3.92487 96.5595 -1 90.4844 -1V0ZM100.484 10H99.4844V102.473H100.484H101.484V10H100.484ZM100.484 102.473L99.6966 101.857L71.8089 137.527L72.5967 138.143L73.3845 138.758L101.272 103.089L100.484 102.473ZM72.5967 138.143V137.143H10V138.143V139.143H72.5967V138.143ZM10 138.143V137.143C5.02944 137.143 1 133.113 1 128.143H0H-1C-1 134.218 3.92487 139.143 10 139.143V138.143ZM0 128.143H1V10H0H-1V128.143H0ZM0 10H1C1 5.02944 5.02944 1 10 1V0V-1C3.92487 -1 -0.999997 3.92487 -1 10H0ZM10 0V1H90.4844V0V-1H10V0Z" fill="black" mask="url(#path-4-inside-2_130_283)"/>
<line x1="15.8659" y1="61.4933" x2="85.2061" y2="61.4933" stroke="black" stroke-width="2"/>
<line x1="15.8659" y1="82.3244" x2="85.2061" y2="82.3244" stroke="black" stroke-width="2"/>
<line x1="15.8659" y1="103.704" x2="85.2061" y2="103.704" stroke="black" stroke-width="2"/>
<path d="M67.8669 107.859L99.329 103.184L72.8791 136.95L67.8669 107.859Z" fill="#979393" stroke="black"/>
<line x1="15.8659" y1="24.7648" x2="85.2061" y2="24.7648" stroke="black" stroke-width="2"/>
<line x1="15.8659" y1="43.4031" x2="85.2061" y2="43.4031" stroke="black" stroke-width="2"/>
</svg>
