<svg width="415" height="247" viewBox="0 0 415 247" fill="none" xmlns="http://www.w3.org/2000/svg">
<line y1="31.4119" x2="350" y2="31.4119" stroke="white"/>
<line y1="52.3239" x2="350" y2="52.3239" stroke="white"/>
<line y1="96.3491" x2="350" y2="96.3491" stroke="white"/>
<line y1="74.3365" x2="350" y2="74.3365" stroke="white"/>
<line y1="118.362" x2="350" y2="118.362" stroke="white"/>
<line y1="140.374" x2="350" y2="140.374" stroke="white"/>
<line y1="161.286" x2="350" y2="161.286" stroke="white"/>
<line x1="27.9254" y1="11" x2="27.9254" y2="186" stroke="white"/>
<line x1="54.0448" y1="11" x2="54.0448" y2="186" stroke="white"/>
<line x1="289.119" y1="11" x2="289.119" y2="186" stroke="white"/>
<line x1="315.239" y1="11" x2="315.239" y2="186" stroke="white"/>
<line x1="238.187" y1="11" x2="238.187" y2="186" stroke="white"/>
<line x1="263" y1="11" x2="263" y2="186" stroke="white"/>
<line x1="185.948" y1="11" x2="185.948" y2="186" stroke="white"/>
<line x1="212.067" y1="11" x2="212.067" y2="186" stroke="white"/>
<line x1="133.709" y1="11" x2="133.709" y2="186" stroke="white"/>
<line x1="159.828" y1="11" x2="159.828" y2="186" stroke="white"/>
<line x1="81.4701" y1="11" x2="81.4701" y2="186" stroke="white"/>
<line x1="107.59" y1="11" x2="107.59" y2="186" stroke="white"/>
<rect x="295.295" y="111.361" width="64.3586" height="120.617" rx="9.5" fill="#FFF8F8" stroke="#020202"/>
<path d="M257.638 111.361H333.18V231.979H257.638C252.391 231.979 248.138 227.725 248.138 222.479V120.861C248.138 115.615 252.391 111.361 257.638 111.361Z" fill="#AA77BD" stroke="#020202"/>
<rect x="237.382" y="60.8947" width="67.6679" height="171.083" rx="9.5" fill="#FFF8F8" stroke="#020202"/>
<path d="M184.833 60.8947H278.576V231.979H184.833C179.586 231.979 175.333 227.725 175.333 222.479V70.3947C175.333 65.148 179.586 60.8947 184.833 60.8947Z" fill="#BE5A90" stroke="#020202"/>
<rect x="192.207" y="103.416" width="71.9772" height="36.4023" rx="10" fill="#A7A2A2"/>
<line x1="211.235" y1="114.825" x2="244.328" y2="114.825" stroke="black" stroke-width="2"/>
<line x1="211.235" y1="125.581" x2="244.328" y2="125.581" stroke="black" stroke-width="2"/>
<rect x="0.499796" y="0.50514" width="106.409" height="36.7663" rx="18.3831" transform="matrix(0.999947 0.0102801 -0.000355279 1 230.27 160.783)" fill="#66BEB3" stroke="black"/>
<path d="M321.999 161.637L410.02 162.542L410.007 199.308L321.986 198.404C311.834 198.299 303.607 189.983 303.61 179.831C303.614 169.678 311.847 161.533 321.999 161.637Z" fill="#FFFEFE" stroke="black"/>
<rect x="0.499796" y="0.50514" width="106.409" height="36.7663" rx="18.3831" transform="matrix(0.999947 0.0102801 -0.000355279 1 213.102 197.123)" fill="#FCD26E" stroke="black"/>
<path d="M304.831 197.976L392.852 198.881L392.839 235.648L304.818 234.743C294.666 234.638 286.439 226.323 286.442 216.17C286.446 206.018 294.679 197.872 304.831 197.976Z" fill="#FFFEFE" stroke="black"/>
<circle cx="124.366" cy="41.3662" r="41.3662" fill="#02BAD4"/>
<path d="M94.5825 41.3662C94.5825 41.3662 110.784 64.2515 127.447 62.8114C141.838 61.5678 154.15 41.3662 154.15 41.3662" stroke="black" stroke-width="3"/>
<circle cx="113.611" cy="28.129" r="4.13662" fill="black"/>
<circle cx="135.949" cy="28.129" r="4.13662" fill="black"/>
</svg>
