<svg width="100" height="100" viewBox="0 0 100 100" fill="none" xmlns="http://www.w3.org/2000/svg">
<rect x="0.5" y="0.5" width="99" height="99" rx="9.5" fill="white" stroke="black"/>
<path d="M68.5 27.7754L67.9375 27.7041C67.4616 27.6442 66.7362 27.5832 65.7549 27.5215H65.7471L65.7383 27.5205C64.7906 27.4282 64.0715 27.3828 63.5732 27.3828C60.7936 27.3828 58.8522 27.922 57.6445 28.9033L57.4131 29.1055C56.2427 30.2015 55.5879 32.1625 55.5879 35.1455V37.3379H68.293L68.2188 37.9023L66.6973 49.6006L66.6406 50.0361H55.5879V85.5H40.9385V50.0361H32.5V37.3379H40.9385V34.0781C40.9385 27.7289 42.3828 22.8392 45.3535 19.4951L45.3555 19.4932L45.6436 19.1826C48.6795 16.027 53.3879 14.5 59.6533 14.5C60.8395 14.5 62.2666 14.5794 63.9316 14.7344L63.9326 14.7334C65.6293 14.8576 67.0109 14.998 68.0732 15.1553L68.5 15.2188V27.7754Z" fill="black" stroke="black"/>
</svg>
