<svg width="100" height="100" viewBox="0 0 100 100" fill="none" xmlns="http://www.w3.org/2000/svg">
<rect x="0.5" y="0.5" width="99" height="99" rx="9.5" fill="white" stroke="black"/>
<rect width="70" height="70" transform="translate(15 15)" fill="white"/>
<path fill-rule="evenodd" clip-rule="evenodd" d="M50 17.1875C31.4682 17.1875 16.4583 32.1974 16.4583 50.7292C16.4583 65.5714 26.0596 78.1076 39.3924 82.5518C41.0695 82.8453 41.6984 81.8391 41.6984 80.9586C41.6984 80.162 41.6565 77.5206 41.6565 74.7115C33.2292 76.2628 31.049 72.657 30.3781 70.7703C30.0008 69.806 28.3656 66.8292 26.9401 66.0326C25.7661 65.4036 24.0891 63.8523 26.8982 63.8104C29.5396 63.7685 31.4263 66.2422 32.0552 67.2484C35.074 72.3216 39.8956 70.8961 41.8242 70.0156C42.1177 67.8354 42.9982 66.368 43.9625 65.5294C36.4995 64.6909 28.701 61.7979 28.701 48.9682C28.701 45.3206 30.0008 42.3018 32.1391 39.9539C31.8036 39.1154 30.6297 35.6773 32.4745 31.0654C32.4745 31.0654 35.2836 30.1849 41.6984 34.5034C44.3818 33.7487 47.2328 33.3714 50.0838 33.3714C52.9349 33.3714 55.7859 33.7487 58.4693 34.5034C64.8841 30.143 67.6932 31.0654 67.6932 31.0654C69.538 35.6773 68.3641 39.1154 68.0286 39.9539C70.1669 42.3018 71.4667 45.2786 71.4667 48.9682C71.4667 61.8398 63.6263 64.6909 56.1633 65.5294C57.3792 66.5776 58.4273 68.5901 58.4273 71.7346C58.4273 76.2208 58.3854 79.8266 58.3854 80.9586C58.3854 81.8391 59.0143 82.8872 60.6914 82.5518C73.9404 78.1076 83.5417 65.5294 83.5417 50.7292C83.5417 32.1974 68.5318 17.1875 50 17.1875Z" fill="#1F2328"/>
</svg>
