<svg width="100" height="100" viewBox="0 0 100 100" fill="none" xmlns="http://www.w3.org/2000/svg">
<rect x="0.5" y="0.5" width="99" height="99" rx="9.5" fill="white" stroke="black"/>
<mask id="path-2-inside-1_130_229" fill="white">
<path d="M74.2568 25.2004C83.0538 20.6067 84.9826 30.6733 84.9961 30.7443V37.8546L69.2539 49.6574L49.9844 63.9162L30.7422 49.0841V72.631L30.7461 76.8214H18.6807C18.6807 76.8214 15.2433 76.4801 15 72.6545V37.8781L30.7188 49.0646L15 37.8742V30.7648C15 30.7648 16.9149 20.6136 25.7432 25.2238L30.7188 28.7355V28.7316L50.2041 43.2502L69.2539 28.7316L74.2568 25.2004ZM85 72.631C84.754 76.4347 81.3516 76.7947 81.3193 76.798H69.2539V49.6574L85 37.8546V72.631Z"/>
</mask>
<path d="M74.2568 25.2004C83.0538 20.6067 84.9826 30.6733 84.9961 30.7443V37.8546L69.2539 49.6574L49.9844 63.9162L30.7422 49.0841V72.631L30.7461 76.8214H18.6807C18.6807 76.8214 15.2433 76.4801 15 72.6545V37.8781L30.7188 49.0646L15 37.8742V30.7648C15 30.7648 16.9149 20.6136 25.7432 25.2238L30.7188 28.7355V28.7316L50.2041 43.2502L69.2539 28.7316L74.2568 25.2004ZM85 72.631C84.754 76.4347 81.3516 76.7947 81.3193 76.798H69.2539V49.6574L85 37.8546V72.631Z" fill="black"/>
<path d="M74.2568 25.2004L73.794 24.3139L73.7347 24.3448L73.6802 24.3834L74.2568 25.2004ZM84.9961 30.7443H85.9961V30.6502L85.9785 30.5578L84.9961 30.7443ZM84.9961 37.8546L85.596 38.6547L85.9961 38.3547V37.8546H84.9961ZM49.9844 63.9162L49.3739 64.7082L49.9721 65.1693L50.5792 64.72L49.9844 63.9162ZM30.7422 49.0841L31.3527 48.2921L29.7422 47.0507V49.0841H30.7422ZM30.7422 72.631H29.7422V72.632L30.7422 72.631ZM30.7461 76.8214V77.8214H31.747L31.7461 76.8205L30.7461 76.8214ZM18.6807 76.8214L18.5819 77.8166L18.6311 77.8214H18.6807V76.8214ZM15 72.6545H14V72.6862L14.002 72.7179L15 72.6545ZM15 37.8781L15.5798 37.0633L14 35.939V37.8781H15ZM30.7188 49.0646L30.1389 49.8794L31.2987 48.25L30.7188 49.0646ZM15 37.8742H14V38.3898L14.42 38.6888L15 37.8742ZM15 30.7648L14.0173 30.5794L14 30.6713V30.7648H15ZM25.7432 25.2238L26.3198 24.4068L26.2652 24.3683L26.2061 24.3374L25.7432 25.2238ZM30.7188 28.7355L30.1421 29.5525L31.7188 30.6653V28.7355H30.7188ZM30.7188 28.7316L31.3162 27.9297L29.7188 26.7394V28.7316H30.7188ZM50.2041 43.2502L49.6066 44.052L50.2109 44.5023L50.8103 44.0455L50.2041 43.2502ZM69.2539 28.7316L68.6772 27.9146L68.6623 27.9252L68.6477 27.9363L69.2539 28.7316ZM85 72.631L85.9979 72.6956L86 72.6633V72.631H85ZM81.3193 76.798V77.798H81.3708L81.422 77.7927L81.3193 76.798ZM69.2539 76.798H68.2539V77.798H69.2539V76.798ZM85 37.8546H86V35.8553L84.4002 37.0545L85 37.8546ZM74.2568 25.2004L74.7197 26.0868C76.7731 25.0145 78.305 24.8584 79.438 25.0972C80.5723 25.3362 81.453 26.002 82.1438 26.8532C82.8402 27.7114 83.3108 28.7205 83.6095 29.5434C83.906 30.3601 84.0168 30.9475 84.0136 30.9308L84.9961 30.7443L85.9785 30.5578C85.9669 30.4963 85.4466 27.7492 83.6968 25.593C82.804 24.4929 81.5523 23.4988 79.8504 23.1402C78.1471 22.7812 76.1391 23.0893 73.794 24.3139L74.2568 25.2004ZM84.9961 30.7443H83.9961V37.8546H84.9961H85.9961V30.7443H84.9961ZM84.9961 37.8546L84.3962 37.0546L68.654 48.8573L69.2539 49.6574L69.8538 50.4575L85.596 38.6547L84.9961 37.8546ZM69.2539 49.6574L68.6591 48.8535L49.3895 63.1123L49.9844 63.9162L50.5792 64.72L69.8487 50.4612L69.2539 49.6574ZM49.9844 63.9162L50.5949 63.1242L31.3527 48.2921L30.7422 49.0841L30.1317 49.8762L49.3739 64.7082L49.9844 63.9162ZM30.7422 49.0841H29.7422V72.631H30.7422H31.7422V49.0841H30.7422ZM30.7422 72.631L29.7422 72.632L29.7461 76.8224L30.7461 76.8214L31.7461 76.8205L31.7422 72.6301L30.7422 72.631ZM30.7461 76.8214V75.8214H18.6807V76.8214V77.8214H30.7461V76.8214ZM18.6807 76.8214C18.7795 75.8263 18.78 75.8264 18.7805 75.8264C18.7807 75.8265 18.7811 75.8265 18.7815 75.8265C18.7821 75.8266 18.7826 75.8267 18.7831 75.8267C18.7842 75.8268 18.785 75.8269 18.7856 75.827C18.7869 75.8271 18.7874 75.8272 18.7871 75.8271C18.7866 75.8271 18.7831 75.8267 18.7768 75.8258C18.7643 75.8241 18.7407 75.8206 18.7076 75.8148C18.6413 75.803 18.5384 75.7817 18.4107 75.7457C18.1527 75.6731 17.8101 75.5453 17.4666 75.3278C16.8163 74.9159 16.0971 74.1493 15.998 72.591L15 72.6545L14.002 72.7179C14.1462 74.9853 15.2673 76.3022 16.3965 77.0174C16.9428 77.3634 17.4747 77.56 17.8688 77.6709C18.0672 77.7268 18.2348 77.762 18.3573 77.7839C18.4188 77.7948 18.4693 77.8024 18.5072 77.8075C18.5261 77.8101 18.542 77.8121 18.5545 77.8136C18.5607 77.8143 18.5662 77.8149 18.5707 77.8154C18.573 77.8156 18.5751 77.8159 18.5769 77.8161C18.5779 77.8162 18.5787 77.8162 18.5796 77.8163C18.58 77.8164 18.5805 77.8164 18.5807 77.8164C18.5813 77.8165 18.5819 77.8166 18.6807 76.8214ZM15 72.6545H16V37.8781H15H14V72.6545H15ZM15 37.8781L14.4202 38.6928L30.1389 49.8794L30.7188 49.0646L31.2986 48.2499L15.5798 37.0633L15 37.8781ZM30.7188 49.0646L31.2987 48.25L15.58 37.0595L15 37.8742L14.42 38.6888L30.1388 49.8793L30.7188 49.0646ZM15 37.8742H16V30.7648H15H14V37.8742H15ZM15 30.7648C15.9827 30.9502 15.9826 30.9506 15.9825 30.9509C15.9825 30.951 15.9824 30.9513 15.9824 30.9515C15.9824 30.9518 15.9823 30.9519 15.9823 30.9519C15.9823 30.9519 15.9825 30.9512 15.9827 30.95C15.9832 30.9476 15.9841 30.9429 15.9856 30.9359C15.9884 30.9218 15.9932 30.8989 16.0001 30.8677C16.0139 30.8053 16.036 30.7102 16.0675 30.5885C16.1308 30.3445 16.2312 29.9961 16.3778 29.5902C16.674 28.7694 17.143 27.7566 17.8393 26.8933C18.5302 26.0368 19.4122 25.3653 20.5489 25.1226C21.6838 24.8803 23.2197 25.0341 25.2803 26.1102L25.7432 25.2238L26.2061 24.3374C23.8525 23.1083 21.8384 22.8022 20.1313 23.1667C18.426 23.5307 17.174 24.5326 16.2826 25.6376C15.3967 26.7359 14.8352 27.9728 14.4965 28.9112C14.3256 29.3849 14.2075 29.7936 14.1315 30.0868C14.0935 30.2336 14.0658 30.3521 14.0472 30.4362C14.0379 30.4782 14.0309 30.5117 14.026 30.5358C14.0235 30.5479 14.0216 30.5576 14.0201 30.5649C14.0194 30.5685 14.0188 30.5716 14.0184 30.574C14.0181 30.5752 14.0179 30.5763 14.0178 30.5772C14.0177 30.5776 14.0176 30.5782 14.0175 30.5784C14.0174 30.579 14.0173 30.5794 15 30.7648ZM25.7432 25.2238L25.1665 26.0408L30.1421 29.5525L30.7188 28.7355L31.2954 27.9185L26.3198 24.4068L25.7432 25.2238ZM30.7188 28.7355H31.7188V28.7316H30.7188H29.7188V28.7355H30.7188ZM30.7188 28.7316L30.1213 29.5335L49.6066 44.052L50.2041 43.2502L50.8016 42.4483L31.3162 27.9297L30.7188 28.7316ZM50.2041 43.2502L50.8103 44.0455L69.8601 29.5269L69.2539 28.7316L68.6477 27.9363L49.5979 42.4548L50.2041 43.2502ZM69.2539 28.7316L69.8306 29.5486L74.8335 26.0173L74.2568 25.2004L73.6802 24.3834L68.6772 27.9146L69.2539 28.7316ZM85 72.631L84.0021 72.5665C83.9018 74.1163 83.1884 74.8832 82.541 75.297C81.845 75.7418 81.1648 75.8086 81.2167 75.8033L81.3193 76.798L81.422 77.7927C81.5061 77.784 82.5432 77.6692 83.618 76.9822C84.7413 76.2643 85.8521 74.9494 85.9979 72.6956L85 72.631ZM81.3193 76.798V75.798H69.2539V76.798V77.798H81.3193V76.798ZM69.2539 76.798H70.2539V49.6574H69.2539H68.2539V76.798H69.2539ZM69.2539 49.6574L69.8537 50.4576L85.5998 38.6548L85 37.8546L84.4002 37.0545L68.6541 48.8572L69.2539 49.6574ZM85 37.8546H84V72.631H85H86V37.8546H85Z" fill="black" mask="url(#path-2-inside-1_130_229)"/>
</svg>
