<svg width="212" height="180" viewBox="0 0 212 180" fill="none" xmlns="http://www.w3.org/2000/svg">
<g filter="url(#filter0_d_152_97)">
<mask id="path-1-inside-1_152_97" fill="white">
<path d="M183 0C188.523 1.22409e-06 193 4.47715 193 10V103C193 108.523 188.523 113 183 113H164.604L164.111 162.601L102.103 113H10C4.47715 113 0 108.523 0 103V10C0 4.47715 4.47715 5.83858e-08 10 0H183Z"/>
</mask>
<path d="M183 0C188.523 1.22409e-06 193 4.47715 193 10V103C193 108.523 188.523 113 183 113H164.604L164.111 162.601L102.103 113H10C4.47715 113 0 108.523 0 103V10C0 4.47715 4.47715 5.83858e-08 10 0H183Z" fill="#D9D9D9"/>
<path d="M183 0V-1V0ZM183 113V114V113ZM164.604 113V112H163.614L163.605 112.99L164.604 113ZM164.111 162.601L163.487 163.382L165.091 164.665L165.111 162.611L164.111 162.601ZM102.103 113L102.727 112.219L102.453 112H102.103V113ZM10 113V114V113ZM10 0V-1V0ZM183 0V1C187.971 1 192 5.02944 192 10H193H194C194 3.92487 189.075 -0.999999 183 -1V0ZM193 10H192V103H193H194V10H193ZM193 103H192C192 107.971 187.971 112 183 112V113V114C189.075 114 194 109.075 194 103H193ZM183 113V112H164.604V113V114H183V113ZM164.604 113L163.605 112.99L163.111 162.591L164.111 162.601L165.111 162.611L165.604 113.01L164.604 113ZM164.111 162.601L164.736 161.82L102.727 112.219L102.103 113L101.478 113.781L163.487 163.382L164.111 162.601ZM102.103 113V112H10V113V114H102.103V113ZM10 113V112C5.02944 112 1 107.971 1 103H0H-1C-1 109.075 3.92487 114 10 114V113ZM0 103H1V10H0H-1V103H0ZM0 10H1C1 5.02944 5.02944 1 10 1V0V-1C3.92487 -1 -1 3.92487 -1 10H0ZM10 0V1H183V0V-1H10V0Z" fill="black" mask="url(#path-1-inside-1_152_97)"/>
</g>
<line x1="13" y1="105.5" x2="80" y2="105.5" stroke="black" stroke-dasharray="2 4 6 8"/>
<line x1="184.5" y1="89" x2="184.5" y2="22" stroke="black" stroke-dasharray="2 4 6 8"/>
<path d="M64.4189 41.9219L61.8799 41.8242L61.3916 67.8008H64.2236L64.3701 72.293L53.5303 72.0488V67.6543L56.9971 67.8008L57.1436 58.5723H46.0107V67.2637H48.8916L48.9893 71.8047L38.3936 71.5605V67.166L41.8604 67.2637L41.6162 42.5566L38.2959 42.3125L38.3936 37.918H48.5986V42.6543L46.0107 42.5566V54.7637L57.0947 54.373L57.1924 41.8242L53.9209 41.5801L54.0186 37.1855H64.4189V41.9219ZM87.5586 57.2051C87.5586 58.5397 87.5098 59.8418 87.4121 61.1113L76.9141 61.3066C76.9141 61.6484 76.9303 62.0635 76.9629 62.5518C76.9954 63.0238 77.0443 63.5283 77.1094 64.0654C77.1908 64.5863 77.2965 65.1071 77.4268 65.6279C77.5732 66.1325 77.7604 66.5964 77.9883 67.0195C78.2161 67.4264 78.4928 67.7601 78.8184 68.0205C79.1602 68.2646 79.5671 68.3867 80.0391 68.3867C80.5436 68.3867 80.9749 68.2565 81.333 67.9961C81.7074 67.7194 82.0085 67.3857 82.2363 66.9951C82.4805 66.5882 82.6676 66.1488 82.7979 65.6768C82.9281 65.2048 83.0176 64.7572 83.0664 64.334H87.3145C87.168 65.2617 86.9238 66.1976 86.582 67.1416C86.2402 68.0856 85.7845 68.9401 85.2148 69.7051C84.6452 70.4701 83.9535 71.0967 83.1396 71.585C82.3258 72.057 81.3737 72.293 80.2832 72.293C79.1439 72.293 78.1592 72.0814 77.3291 71.6582C76.5153 71.2188 75.8236 70.641 75.2539 69.9248C74.6842 69.2087 74.2204 68.3867 73.8623 67.459C73.5042 66.515 73.2275 65.5465 73.0322 64.5537C72.8532 63.5446 72.7311 62.5355 72.666 61.5264C72.6009 60.5173 72.5684 59.5814 72.5684 58.7188C72.5684 57.9375 72.609 57.0911 72.6904 56.1797C72.7881 55.2682 72.9427 54.3649 73.1543 53.4697C73.3659 52.5745 73.6507 51.7119 74.0088 50.8818C74.3831 50.0518 74.847 49.3275 75.4004 48.709C75.9538 48.0742 76.613 47.5697 77.3779 47.1953C78.1429 46.8047 79.0299 46.6094 80.0391 46.6094C81.7643 46.6094 83.1234 46.8861 84.1162 47.4395C85.109 47.9766 85.8577 48.7253 86.3623 49.6855C86.8831 50.6296 87.2087 51.7526 87.3389 53.0547C87.4854 54.3405 87.5586 55.724 87.5586 57.2051ZM83.3105 55.7891C83.3105 55.3008 83.278 54.7474 83.2129 54.1289C83.1641 53.5104 83.0339 52.9245 82.8223 52.3711C82.627 51.8177 82.334 51.3538 81.9434 50.9795C81.5527 50.6051 81.0319 50.418 80.3809 50.418C79.8112 50.418 79.3311 50.5482 78.9404 50.8086C78.5498 51.0527 78.2243 51.3783 77.9639 51.7852C77.7035 52.1921 77.5 52.6641 77.3535 53.2012C77.207 53.722 77.1012 54.2591 77.0361 54.8125C76.971 55.3496 76.9222 55.8786 76.8896 56.3994C76.8734 56.9202 76.8652 57.3841 76.8652 57.791H83.1641C83.2617 57.1074 83.3105 56.4401 83.3105 55.7891ZM103.74 68.1426L103.594 72.1953L94.6582 71.8047V67.5566L96.709 67.4102V41.1406H93.7305L93.8281 36.8438H101.689L101.104 67.8984L103.74 68.1426ZM119.238 68.1426L119.092 72.1953L110.156 71.8047V67.5566L112.207 67.4102V41.1406H109.229L109.326 36.8438H117.188L116.602 67.8984L119.238 68.1426ZM141.597 58.7188C141.597 59.5326 141.548 60.4359 141.45 61.4287C141.353 62.4215 141.182 63.4307 140.938 64.4561C140.693 65.4652 140.368 66.458 139.961 67.4346C139.57 68.3949 139.074 69.2493 138.472 69.998C137.869 70.7467 137.161 71.349 136.348 71.8047C135.55 72.2604 134.614 72.4883 133.54 72.4883C132.531 72.4883 131.644 72.3011 130.879 71.9268C130.114 71.5361 129.455 71.0316 128.901 70.4131C128.348 69.7783 127.884 69.0459 127.51 68.2158C127.135 67.3857 126.834 66.5231 126.606 65.6279C126.395 64.7327 126.24 63.8294 126.143 62.918C126.061 62.0065 126.021 61.1602 126.021 60.3789C126.021 59.5651 126.069 58.6536 126.167 57.6445C126.265 56.6354 126.427 55.6182 126.655 54.5928C126.899 53.5511 127.217 52.542 127.607 51.5654C128.014 50.5889 128.511 49.7262 129.097 48.9775C129.699 48.2126 130.407 47.6022 131.221 47.1465C132.035 46.6908 132.987 46.4629 134.077 46.4629C135.07 46.4629 135.941 46.6582 136.689 47.0488C137.454 47.4395 138.114 47.9603 138.667 48.6113C139.237 49.2624 139.701 50.0111 140.059 50.8574C140.433 51.7038 140.734 52.5827 140.962 53.4941C141.19 54.3893 141.353 55.2926 141.45 56.2041C141.548 57.1156 141.597 57.9538 141.597 58.7188ZM137.739 58.5723C137.739 58.2305 137.723 57.791 137.69 57.2539C137.658 56.7168 137.593 56.1471 137.495 55.5449C137.414 54.9427 137.292 54.3405 137.129 53.7383C136.966 53.1361 136.755 52.5908 136.494 52.1025C136.234 51.6143 135.908 51.2236 135.518 50.9307C135.143 50.6214 134.696 50.4668 134.175 50.4668C133.54 50.4668 132.995 50.6621 132.539 51.0527C132.1 51.4271 131.717 51.9154 131.392 52.5176C131.082 53.1198 130.83 53.7952 130.635 54.5439C130.439 55.2764 130.285 56.0169 130.171 56.7656C130.073 57.498 130.008 58.1898 129.976 58.8408C129.943 59.4919 129.927 60.0208 129.927 60.4277C129.927 60.7695 129.943 61.209 129.976 61.7461C130.008 62.2669 130.073 62.8285 130.171 63.4307C130.269 64.0329 130.399 64.6351 130.562 65.2373C130.741 65.8232 130.96 66.3604 131.221 66.8486C131.481 67.3369 131.799 67.7357 132.173 68.0449C132.547 68.3379 132.987 68.4844 133.491 68.4844C134.11 68.4844 134.639 68.2972 135.078 67.9229C135.534 67.5485 135.916 67.0684 136.226 66.4824C136.551 65.8802 136.812 65.2129 137.007 64.4805C137.202 63.748 137.349 63.0156 137.446 62.2832C137.56 61.5345 137.633 60.8346 137.666 60.1836C137.715 59.5326 137.739 58.9954 137.739 58.5723ZM155.85 36.502L154.629 64.4805L151.455 64.7246L149.697 36.7461L155.85 36.502ZM155.996 69.2168C155.996 69.64 155.915 70.0387 155.752 70.4131C155.589 70.7874 155.369 71.113 155.093 71.3896C154.816 71.6663 154.491 71.8861 154.116 72.0488C153.742 72.2116 153.343 72.293 152.92 72.293C152.497 72.293 152.09 72.2116 151.699 72.0488C151.325 71.8861 150.991 71.6663 150.698 71.3896C150.422 71.113 150.202 70.7874 150.039 70.4131C149.876 70.0387 149.795 69.64 149.795 69.2168C149.795 68.7936 149.876 68.3949 150.039 68.0205C150.202 67.6299 150.422 67.2962 150.698 67.0195C150.991 66.7266 151.325 66.4987 151.699 66.3359C152.09 66.1732 152.497 66.0918 152.92 66.0918C153.343 66.0918 153.742 66.1732 154.116 66.3359C154.491 66.4987 154.816 66.7266 155.093 67.0195C155.369 67.2962 155.589 67.6299 155.752 68.0205C155.915 68.3949 155.996 68.7936 155.996 69.2168Z" fill="black"/>
<line x1="165" y1="161" x2="165" y2="102" stroke="black" stroke-width="4"/>
<g filter="url(#filter1_d_152_97)">
<mask id="path-7-inside-2_152_97" fill="white">
<path d="M196 11C201.523 11 206 15.4772 206 21V114C206 119.523 201.523 124 196 124H177.604L177.111 173.601L115.103 124H23C17.4772 124 13 119.523 13 114V21C13 15.4772 17.4772 11 23 11H196Z"/>
</mask>
<path d="M196 11C201.523 11 206 15.4772 206 21V114C206 119.523 201.523 124 196 124H177.604L177.111 173.601L115.103 124H23C17.4772 124 13 119.523 13 114V21C13 15.4772 17.4772 11 23 11H196Z" fill="#D9D9D9"/>
<path d="M196 11V10V11ZM196 124V125V124ZM177.604 124V123H176.614L176.605 123.99L177.604 124ZM177.111 173.601L176.487 174.382L178.091 175.665L178.111 173.611L177.111 173.601ZM115.103 124L115.727 123.219L115.453 123H115.103V124ZM23 124V125V124ZM23 11V10V11ZM196 11V12C200.971 12 205 16.0294 205 21H206H207C207 14.9249 202.075 10 196 10V11ZM206 21H205V114H206H207V21H206ZM206 114H205C205 118.971 200.971 123 196 123V124V125C202.075 125 207 120.075 207 114H206ZM196 124V123H177.604V124V125H196V124ZM177.604 124L176.605 123.99L176.111 173.591L177.111 173.601L178.111 173.611L178.604 124.01L177.604 124ZM177.111 173.601L177.736 172.82L115.727 123.219L115.103 124L114.478 124.781L176.487 174.382L177.111 173.601ZM115.103 124V123H23V124V125H115.103V124ZM23 124V123C18.0294 123 14 118.971 14 114H13H12C12 120.075 16.9249 125 23 125V124ZM13 114H14V21H13H12V114H13ZM13 21H14C14 16.0294 18.0294 12 23 12V11V10C16.9249 10 12 14.9249 12 21H13ZM23 11V12H196V11V10H23V11Z" fill="black" mask="url(#path-7-inside-2_152_97)"/>
</g>
<line x1="26" y1="116.5" x2="93" y2="116.5" stroke="black" stroke-dasharray="2 4 6 8"/>
<line x1="197.5" y1="100" x2="197.5" y2="33" stroke="black" stroke-dasharray="2 4 6 8"/>
<path d="M77.4189 52.9219L74.8799 52.8242L74.3916 78.8008H77.2236L77.3701 83.293L66.5303 83.0488V78.6543L69.9971 78.8008L70.1436 69.5723H59.0107V78.2637H61.8916L61.9893 82.8047L51.3936 82.5605V78.166L54.8604 78.2637L54.6162 53.5566L51.2959 53.3125L51.3936 48.918H61.5986V53.6543L59.0107 53.5566V65.7637L70.0947 65.373L70.1924 52.8242L66.9209 52.5801L67.0186 48.1855H77.4189V52.9219ZM100.559 68.2051C100.559 69.5397 100.51 70.8418 100.412 72.1113L89.9141 72.3066C89.9141 72.6484 89.9303 73.0635 89.9629 73.5518C89.9954 74.0238 90.0443 74.5283 90.1094 75.0654C90.1908 75.5863 90.2965 76.1071 90.4268 76.6279C90.5732 77.1325 90.7604 77.5964 90.9883 78.0195C91.2161 78.4264 91.4928 78.7601 91.8184 79.0205C92.1602 79.2646 92.5671 79.3867 93.0391 79.3867C93.5436 79.3867 93.9749 79.2565 94.333 78.9961C94.7074 78.7194 95.0085 78.3857 95.2363 77.9951C95.4805 77.5882 95.6676 77.1488 95.7979 76.6768C95.9281 76.2048 96.0176 75.7572 96.0664 75.334H100.314C100.168 76.2617 99.9238 77.1976 99.582 78.1416C99.2402 79.0856 98.7845 79.9401 98.2148 80.7051C97.6452 81.4701 96.9535 82.0967 96.1396 82.585C95.3258 83.057 94.3737 83.293 93.2832 83.293C92.1439 83.293 91.1592 83.0814 90.3291 82.6582C89.5153 82.2188 88.8236 81.641 88.2539 80.9248C87.6842 80.2087 87.2204 79.3867 86.8623 78.459C86.5042 77.515 86.2275 76.5465 86.0322 75.5537C85.8532 74.5446 85.7311 73.5355 85.666 72.5264C85.6009 71.5173 85.5684 70.5814 85.5684 69.7188C85.5684 68.9375 85.609 68.0911 85.6904 67.1797C85.7881 66.2682 85.9427 65.3649 86.1543 64.4697C86.3659 63.5745 86.6507 62.7119 87.0088 61.8818C87.3831 61.0518 87.847 60.3275 88.4004 59.709C88.9538 59.0742 89.613 58.5697 90.3779 58.1953C91.1429 57.8047 92.0299 57.6094 93.0391 57.6094C94.7643 57.6094 96.1234 57.8861 97.1162 58.4395C98.109 58.9766 98.8577 59.7253 99.3623 60.6855C99.8831 61.6296 100.209 62.7526 100.339 64.0547C100.485 65.3405 100.559 66.724 100.559 68.2051ZM96.3105 66.7891C96.3105 66.3008 96.278 65.7474 96.2129 65.1289C96.1641 64.5104 96.0339 63.9245 95.8223 63.3711C95.627 62.8177 95.334 62.3538 94.9434 61.9795C94.5527 61.6051 94.0319 61.418 93.3809 61.418C92.8112 61.418 92.3311 61.5482 91.9404 61.8086C91.5498 62.0527 91.2243 62.3783 90.9639 62.7852C90.7035 63.1921 90.5 63.6641 90.3535 64.2012C90.207 64.722 90.1012 65.2591 90.0361 65.8125C89.971 66.3496 89.9222 66.8786 89.8896 67.3994C89.8734 67.9202 89.8652 68.3841 89.8652 68.791H96.1641C96.2617 68.1074 96.3105 67.4401 96.3105 66.7891ZM116.74 79.1426L116.594 83.1953L107.658 82.8047V78.5566L109.709 78.4102V52.1406H106.73L106.828 47.8438H114.689L114.104 78.8984L116.74 79.1426ZM132.238 79.1426L132.092 83.1953L123.156 82.8047V78.5566L125.207 78.4102V52.1406H122.229L122.326 47.8438H130.188L129.602 78.8984L132.238 79.1426ZM154.597 69.7188C154.597 70.5326 154.548 71.4359 154.45 72.4287C154.353 73.4215 154.182 74.4307 153.938 75.4561C153.693 76.4652 153.368 77.458 152.961 78.4346C152.57 79.3949 152.074 80.2493 151.472 80.998C150.869 81.7467 150.161 82.349 149.348 82.8047C148.55 83.2604 147.614 83.4883 146.54 83.4883C145.531 83.4883 144.644 83.3011 143.879 82.9268C143.114 82.5361 142.455 82.0316 141.901 81.4131C141.348 80.7783 140.884 80.0459 140.51 79.2158C140.135 78.3857 139.834 77.5231 139.606 76.6279C139.395 75.7327 139.24 74.8294 139.143 73.918C139.061 73.0065 139.021 72.1602 139.021 71.3789C139.021 70.5651 139.069 69.6536 139.167 68.6445C139.265 67.6354 139.427 66.6182 139.655 65.5928C139.899 64.5511 140.217 63.542 140.607 62.5654C141.014 61.5889 141.511 60.7262 142.097 59.9775C142.699 59.2126 143.407 58.6022 144.221 58.1465C145.035 57.6908 145.987 57.4629 147.077 57.4629C148.07 57.4629 148.941 57.6582 149.689 58.0488C150.454 58.4395 151.114 58.9603 151.667 59.6113C152.237 60.2624 152.701 61.0111 153.059 61.8574C153.433 62.7038 153.734 63.5827 153.962 64.4941C154.19 65.3893 154.353 66.2926 154.45 67.2041C154.548 68.1156 154.597 68.9538 154.597 69.7188ZM150.739 69.5723C150.739 69.2305 150.723 68.791 150.69 68.2539C150.658 67.7168 150.593 67.1471 150.495 66.5449C150.414 65.9427 150.292 65.3405 150.129 64.7383C149.966 64.1361 149.755 63.5908 149.494 63.1025C149.234 62.6143 148.908 62.2236 148.518 61.9307C148.143 61.6214 147.696 61.4668 147.175 61.4668C146.54 61.4668 145.995 61.6621 145.539 62.0527C145.1 62.4271 144.717 62.9154 144.392 63.5176C144.082 64.1198 143.83 64.7952 143.635 65.5439C143.439 66.2764 143.285 67.0169 143.171 67.7656C143.073 68.498 143.008 69.1898 142.976 69.8408C142.943 70.4919 142.927 71.0208 142.927 71.4277C142.927 71.7695 142.943 72.209 142.976 72.7461C143.008 73.2669 143.073 73.8285 143.171 74.4307C143.269 75.0329 143.399 75.6351 143.562 76.2373C143.741 76.8232 143.96 77.3604 144.221 77.8486C144.481 78.3369 144.799 78.7357 145.173 79.0449C145.547 79.3379 145.987 79.4844 146.491 79.4844C147.11 79.4844 147.639 79.2972 148.078 78.9229C148.534 78.5485 148.916 78.0684 149.226 77.4824C149.551 76.8802 149.812 76.2129 150.007 75.4805C150.202 74.748 150.349 74.0156 150.446 73.2832C150.56 72.5345 150.633 71.8346 150.666 71.1836C150.715 70.5326 150.739 69.9954 150.739 69.5723ZM168.85 47.502L167.629 75.4805L164.455 75.7246L162.697 47.7461L168.85 47.502ZM168.996 80.2168C168.996 80.64 168.915 81.0387 168.752 81.4131C168.589 81.7874 168.369 82.113 168.093 82.3896C167.816 82.6663 167.491 82.8861 167.116 83.0488C166.742 83.2116 166.343 83.293 165.92 83.293C165.497 83.293 165.09 83.2116 164.699 83.0488C164.325 82.8861 163.991 82.6663 163.698 82.3896C163.422 82.113 163.202 81.7874 163.039 81.4131C162.876 81.0387 162.795 80.64 162.795 80.2168C162.795 79.7936 162.876 79.3949 163.039 79.0205C163.202 78.6299 163.422 78.2962 163.698 78.0195C163.991 77.7266 164.325 77.4987 164.699 77.3359C165.09 77.1732 165.497 77.0918 165.92 77.0918C166.343 77.0918 166.742 77.1732 167.116 77.3359C167.491 77.4987 167.816 77.7266 168.093 78.0195C168.369 78.2962 168.589 78.6299 168.752 79.0205C168.915 79.3949 168.996 79.7936 168.996 80.2168Z" fill="black"/>
<line x1="178" y1="172" x2="178" y2="113" stroke="black" stroke-width="4"/>
<defs>
<filter id="filter0_d_152_97" x="0" y="0" width="199" height="168.601" filterUnits="userSpaceOnUse" color-interpolation-filters="sRGB">
<feFlood flood-opacity="0" result="BackgroundImageFix"/>
<feColorMatrix in="SourceAlpha" type="matrix" values="0 0 0 0 0 0 0 0 0 0 0 0 0 0 0 0 0 0 127 0" result="hardAlpha"/>
<feOffset dx="6" dy="6"/>
<feComposite in2="hardAlpha" operator="out"/>
<feColorMatrix type="matrix" values="0 0 0 0 0 0 0 0 0 0 0 0 0 0 0 0 0 0 1 0"/>
<feBlend mode="normal" in2="BackgroundImageFix" result="effect1_dropShadow_152_97"/>
<feBlend mode="normal" in="SourceGraphic" in2="effect1_dropShadow_152_97" result="shape"/>
</filter>
<filter id="filter1_d_152_97" x="13" y="11" width="199" height="168.601" filterUnits="userSpaceOnUse" color-interpolation-filters="sRGB">
<feFlood flood-opacity="0" result="BackgroundImageFix"/>
<feColorMatrix in="SourceAlpha" type="matrix" values="0 0 0 0 0 0 0 0 0 0 0 0 0 0 0 0 0 0 127 0" result="hardAlpha"/>
<feOffset dx="6" dy="6"/>
<feComposite in2="hardAlpha" operator="out"/>
<feColorMatrix type="matrix" values="0 0 0 0 0 0 0 0 0 0 0 0 0 0 0 0 0 0 1 0"/>
<feBlend mode="normal" in2="BackgroundImageFix" result="effect1_dropShadow_152_97"/>
<feBlend mode="normal" in="SourceGraphic" in2="effect1_dropShadow_152_97" result="shape"/>
</filter>
</defs>
</svg>
