<svg width="100" height="100" viewBox="0 0 100 100" fill="none" xmlns="http://www.w3.org/2000/svg">
<rect x="0.5" y="0.5" width="99" height="99" rx="9.5" fill="white" stroke="black"/>
<mask id="path-2-inside-1_130_245" fill="white">
<path d="M50.0001 15C40.4946 15 39.3027 15.0403 35.5695 15.2106C31.8442 15.3805 29.2999 15.9723 27.0736 16.8374C24.772 17.7318 22.8202 18.9286 20.8745 20.8744C18.9286 22.8201 17.7318 24.7721 16.8375 27.0737C15.9722 29.2999 15.3806 31.8442 15.2105 35.5695C15.0402 39.3027 15 40.4946 15 50.0001C15 59.5054 15.0402 60.6973 15.2105 64.4305C15.3806 68.1558 15.9722 70.7001 16.8375 72.9263C17.7319 75.2279 18.9287 77.1797 20.8745 79.1256C22.8203 81.0714 24.772 82.2682 27.0736 83.1627C29.2999 84.0277 31.8442 84.6194 35.5695 84.7894C39.3027 84.9597 40.4946 85 50.0001 85C59.5054 85 60.6973 84.9597 64.4305 84.7894C68.1558 84.6195 70.7001 84.0277 72.9263 83.1627C75.2279 82.2682 77.1797 81.0714 79.1256 79.1256C81.0714 77.1797 82.2682 75.2279 83.1627 72.9263C84.0277 70.7001 84.6195 68.1558 84.7894 64.4305C84.9597 60.6973 85 59.5054 85 50.0001C85 40.4946 84.9597 39.3027 84.7894 35.5695C84.6195 31.8442 84.0277 29.2999 83.1627 27.0737C82.2682 24.7721 81.0714 22.8201 79.1256 20.8744C77.1797 18.9286 75.2279 17.7318 72.9263 16.8374C70.7001 15.9723 68.1558 15.3805 64.4305 15.2106C60.6973 15.0403 59.5054 15 50.0001 15ZM50.0001 21.3063C59.3453 21.3063 60.4524 21.342 64.143 21.5104C67.5555 21.666 69.4087 22.2361 70.6419 22.7155C72.2758 23.3504 73.4417 24.1088 74.6663 25.3336C75.8912 26.5583 76.6496 27.7243 77.2845 29.358C77.7639 30.5913 78.334 32.4446 78.4896 35.857C78.658 39.5476 78.6937 40.6547 78.6937 50C78.6937 59.3453 78.658 60.4524 78.4896 64.143C78.334 67.5555 77.7639 69.4087 77.2845 70.6419C76.6496 72.2758 75.8912 73.4417 74.6663 74.6663C73.4417 75.8912 72.2757 76.6496 70.642 77.2845C69.4087 77.7639 67.5554 78.334 64.143 78.4896C60.453 78.658 59.3461 78.6937 50 78.6937C40.6539 78.6937 39.5472 78.658 35.857 78.4895C32.4445 78.334 30.5913 77.7639 29.3581 77.2845C27.7242 76.6496 26.5583 75.8912 25.3337 74.6663C24.1089 73.4417 23.3504 72.2757 22.7155 70.642C22.2361 69.4087 21.6661 67.5554 21.5104 64.143C21.342 60.4524 21.3063 59.3453 21.3063 50C21.3063 40.6547 21.342 39.5476 21.5104 35.857C21.6661 32.4445 22.2361 30.5913 22.7155 29.3581C23.3504 27.7242 24.1089 26.5583 25.3336 25.3337C26.5583 24.1088 27.7243 23.3504 29.358 22.7155C30.5913 22.2361 32.4446 21.666 35.857 21.5104C39.5476 21.342 40.6547 21.3063 50 21.3063"/>
</mask>
<path d="M50.0001 15C40.4946 15 39.3027 15.0403 35.5695 15.2106C31.8442 15.3805 29.2999 15.9723 27.0736 16.8374C24.772 17.7318 22.8202 18.9286 20.8745 20.8744C18.9286 22.8201 17.7318 24.7721 16.8375 27.0737C15.9722 29.2999 15.3806 31.8442 15.2105 35.5695C15.0402 39.3027 15 40.4946 15 50.0001C15 59.5054 15.0402 60.6973 15.2105 64.4305C15.3806 68.1558 15.9722 70.7001 16.8375 72.9263C17.7319 75.2279 18.9287 77.1797 20.8745 79.1256C22.8203 81.0714 24.772 82.2682 27.0736 83.1627C29.2999 84.0277 31.8442 84.6194 35.5695 84.7894C39.3027 84.9597 40.4946 85 50.0001 85C59.5054 85 60.6973 84.9597 64.4305 84.7894C68.1558 84.6195 70.7001 84.0277 72.9263 83.1627C75.2279 82.2682 77.1797 81.0714 79.1256 79.1256C81.0714 77.1797 82.2682 75.2279 83.1627 72.9263C84.0277 70.7001 84.6195 68.1558 84.7894 64.4305C84.9597 60.6973 85 59.5054 85 50.0001C85 40.4946 84.9597 39.3027 84.7894 35.5695C84.6195 31.8442 84.0277 29.2999 83.1627 27.0737C82.2682 24.7721 81.0714 22.8201 79.1256 20.8744C77.1797 18.9286 75.2279 17.7318 72.9263 16.8374C70.7001 15.9723 68.1558 15.3805 64.4305 15.2106C60.6973 15.0403 59.5054 15 50.0001 15ZM50.0001 21.3063C59.3453 21.3063 60.4524 21.342 64.143 21.5104C67.5555 21.666 69.4087 22.2361 70.6419 22.7155C72.2758 23.3504 73.4417 24.1088 74.6663 25.3336C75.8912 26.5583 76.6496 27.7243 77.2845 29.358C77.7639 30.5913 78.334 32.4446 78.4896 35.857C78.658 39.5476 78.6937 40.6547 78.6937 50C78.6937 59.3453 78.658 60.4524 78.4896 64.143C78.334 67.5555 77.7639 69.4087 77.2845 70.6419C76.6496 72.2758 75.8912 73.4417 74.6663 74.6663C73.4417 75.8912 72.2757 76.6496 70.642 77.2845C69.4087 77.7639 67.5554 78.334 64.143 78.4896C60.453 78.658 59.3461 78.6937 50 78.6937C40.6539 78.6937 39.5472 78.658 35.857 78.4895C32.4445 78.334 30.5913 77.7639 29.3581 77.2845C27.7242 76.6496 26.5583 75.8912 25.3337 74.6663C24.1089 73.4417 23.3504 72.2757 22.7155 70.642C22.2361 69.4087 21.6661 67.5554 21.5104 64.143C21.342 60.4524 21.3063 59.3453 21.3063 50C21.3063 40.6547 21.342 39.5476 21.5104 35.857C21.6661 32.4445 22.2361 30.5913 22.7155 29.3581C23.3504 27.7242 24.1089 26.5583 25.3336 25.3337C26.5583 24.1088 27.7243 23.3504 29.358 22.7155C30.5913 22.2361 32.4446 21.666 35.857 21.5104C39.5476 21.342 40.6547 21.3063 50 21.3063" fill="#100F0D"/>
<path d="M35.5695 15.2106L35.5239 14.2116L35.5239 14.2116L35.5695 15.2106ZM27.0736 16.8374L26.7114 15.9052L26.7114 15.9053L27.0736 16.8374ZM20.8745 20.8744L21.5815 21.5815L21.5816 21.5815L20.8745 20.8744ZM16.8375 27.0737L17.7695 27.436L17.7696 27.4359L16.8375 27.0737ZM15.2105 35.5695L14.2115 35.5239L14.2115 35.5239L15.2105 35.5695ZM15.2105 64.4305L14.2115 64.476L14.2115 64.4761L15.2105 64.4305ZM16.8375 72.9263L17.7695 72.5641L17.7695 72.564L16.8375 72.9263ZM20.8745 79.1256L20.1673 79.8327L20.1674 79.8328L20.8745 79.1256ZM27.0736 83.1627L26.7114 84.0947L26.7114 84.0948L27.0736 83.1627ZM35.5695 84.7894L35.5239 85.7884H35.5239L35.5695 84.7894ZM64.4305 84.7894L64.476 85.7884H64.4761L64.4305 84.7894ZM72.9263 83.1627L73.2885 84.0948L73.2885 84.0947L72.9263 83.1627ZM79.1256 79.1256L79.8327 79.8328L79.8328 79.8327L79.1256 79.1256ZM83.1627 72.9263L84.0947 73.2885L84.0948 73.2885L83.1627 72.9263ZM84.7894 64.4305L85.7884 64.4761V64.476L84.7894 64.4305ZM84.7894 35.5695L85.7884 35.5239V35.5239L84.7894 35.5695ZM83.1627 27.0737L84.0948 26.7115L84.0947 26.7115L83.1627 27.0737ZM79.1256 20.8744L79.8327 20.1672L79.8327 20.1672L79.1256 20.8744ZM72.9263 16.8374L73.2885 15.9053L73.2885 15.9052L72.9263 16.8374ZM64.4305 15.2106L64.4761 14.2116L64.476 14.2116L64.4305 15.2106ZM64.143 21.5104L64.0974 22.5093L64.0975 22.5093L64.143 21.5104ZM70.6419 22.7155L70.2797 23.6475L70.2797 23.6475L70.6419 22.7155ZM74.6663 25.3336L73.9592 26.0406L73.9592 26.0407L74.6663 25.3336ZM77.2845 29.358L78.2166 28.9957L78.2166 28.9957L77.2845 29.358ZM78.4896 35.857L77.4906 35.9025L77.4907 35.9026L78.4896 35.857ZM78.4896 64.143L77.4907 64.0974L77.4906 64.0975L78.4896 64.143ZM77.2845 70.6419L76.3525 70.2797L76.3525 70.2797L77.2845 70.6419ZM74.6663 74.6663L73.9593 73.9592L73.9592 73.9593L74.6663 74.6663ZM70.642 77.2845L71.0043 78.2166L71.0043 78.2166L70.642 77.2845ZM64.143 78.4896L64.0975 77.4906L64.0974 77.4907L64.143 78.4896ZM35.857 78.4895L35.9026 77.4906L35.9025 77.4905L35.857 78.4895ZM29.3581 77.2845L29.7203 76.3525L29.7203 76.3525L29.3581 77.2845ZM25.3337 74.6663L26.0408 73.9593L26.0408 73.9592L25.3337 74.6663ZM22.7155 70.642L21.7834 71.0043L21.7834 71.0043L22.7155 70.642ZM21.5104 64.143L22.5093 64.0974V64.0974L21.5104 64.143ZM21.5104 35.857L22.5093 35.9026V35.9026L21.5104 35.857ZM22.7155 29.3581L23.6475 29.7203L23.6475 29.7203L22.7155 29.3581ZM25.3336 25.3337L26.0407 26.0408L26.0407 26.0408L25.3336 25.3337ZM29.358 22.7155L28.9957 21.7834L28.9957 21.7834L29.358 22.7155ZM35.857 21.5104L35.9025 22.5093L35.9026 22.5093L35.857 21.5104ZM50.0001 15V14C40.4897 14 39.2799 14.0403 35.5239 14.2116L35.5695 15.2106L35.6151 16.2095C39.3254 16.0403 40.4995 16 50.0001 16V15ZM35.5695 15.2106L35.5239 14.2116C31.7037 14.3859 29.0509 14.9962 26.7114 15.9052L27.0736 16.8374L27.4358 17.7695C29.5489 16.9484 31.9846 16.3752 35.6151 16.2095L35.5695 15.2106ZM27.0736 16.8374L26.7114 15.9053C24.2898 16.8463 22.218 18.1166 20.1674 20.1672L20.8745 20.8744L21.5816 21.5815C23.4223 19.7407 25.2543 18.6173 27.4358 17.7694L27.0736 16.8374ZM20.8745 20.8744L20.1674 20.1672C18.1166 22.2179 16.8463 24.29 15.9054 26.7115L16.8375 27.0737L17.7696 27.4359C18.6173 25.2543 19.7407 23.4222 21.5815 21.5815L20.8745 20.8744ZM16.8375 27.0737L15.9054 26.7114C14.9961 29.0509 14.386 31.7038 14.2115 35.5239L15.2105 35.5695L16.2094 35.6151C16.3753 31.9846 16.9483 29.5489 17.7695 27.436L16.8375 27.0737ZM15.2105 35.5695L14.2115 35.5239C14.0402 39.2799 14 40.4897 14 50.0001H15H16C16 40.4995 16.0402 39.3254 16.2094 35.6151L15.2105 35.5695ZM15 50.0001H14C14 59.5103 14.0402 60.7201 14.2115 64.476L15.2105 64.4305L16.2094 64.3849C16.0402 60.6746 16 59.5005 16 50.0001H15ZM15.2105 64.4305L14.2115 64.4761C14.386 68.2962 14.9961 70.9491 15.9054 73.2886L16.8375 72.9263L17.7695 72.564C16.9483 70.4511 16.3753 68.0154 16.2094 64.3849L15.2105 64.4305ZM16.8375 72.9263L15.9054 73.2885C16.8464 75.7101 18.1167 77.7819 20.1673 79.8327L20.8745 79.1256L21.5816 78.4186C19.7408 76.5776 18.6174 74.7456 17.7695 72.5641L16.8375 72.9263ZM20.8745 79.1256L20.1674 79.8328C22.2181 81.8834 24.2898 83.1537 26.7114 84.0947L27.0736 83.1627L27.4358 82.2306C25.2543 81.3828 23.4224 80.2593 21.5815 78.4185L20.8745 79.1256ZM27.0736 83.1627L26.7114 84.0948C29.0509 85.0038 31.7038 85.614 35.5239 85.7884L35.5695 84.7894L35.6151 83.7905C31.9846 83.6247 29.5489 83.0516 27.4358 82.2305L27.0736 83.1627ZM35.5695 84.7894L35.5239 85.7884C39.2799 85.9597 40.4897 86 50.0001 86V85V84C40.4995 84 39.3254 83.9597 35.6151 83.7905L35.5695 84.7894ZM50.0001 85V86C59.5103 86 60.7201 85.9597 64.476 85.7884L64.4305 84.7894L64.3849 83.7905C60.6746 83.9597 59.5005 84 50.0001 84V85ZM64.4305 84.7894L64.4761 85.7884C68.2963 85.6141 70.9491 85.0038 73.2885 84.0948L72.9263 83.1627L72.5641 82.2306C70.4511 83.0516 68.0154 83.6248 64.3849 83.7905L64.4305 84.7894ZM72.9263 83.1627L73.2885 84.0947C75.7101 83.1537 77.7819 81.8834 79.8327 79.8328L79.1256 79.1256L78.4186 78.4185C76.5776 80.2593 74.7456 81.3828 72.5641 82.2306L72.9263 83.1627ZM79.1256 79.1256L79.8328 79.8327C81.8834 77.7819 83.1537 75.7101 84.0947 73.2885L83.1627 72.9263L82.2306 72.5641C81.3828 74.7456 80.2593 76.5776 78.4185 78.4186L79.1256 79.1256ZM83.1627 72.9263L84.0948 73.2885C85.0038 70.9491 85.6141 68.2963 85.7884 64.4761L84.7894 64.4305L83.7905 64.3849C83.6248 68.0154 83.0516 70.4511 82.2306 72.5641L83.1627 72.9263ZM84.7894 64.4305L85.7884 64.476C85.9597 60.7201 86 59.5103 86 50.0001H85H84C84 59.5005 83.9597 60.6746 83.7905 64.3849L84.7894 64.4305ZM85 50.0001H86C86 40.4897 85.9597 39.2799 85.7884 35.5239L84.7894 35.5695L83.7905 35.6151C83.9597 39.3254 84 40.4995 84 50.0001H85ZM84.7894 35.5695L85.7884 35.5239C85.6141 31.7037 85.0038 29.0509 84.0948 26.7115L83.1627 27.0737L82.2306 27.4359C83.0516 29.5489 83.6248 31.9846 83.7905 35.6151L84.7894 35.5695ZM83.1627 27.0737L84.0947 26.7115C83.1537 24.29 81.8834 22.2179 79.8327 20.1672L79.1256 20.8744L78.4185 21.5815C80.2593 23.4222 81.3827 25.2543 82.2306 27.4359L83.1627 27.0737ZM79.1256 20.8744L79.8327 20.1672C77.7819 18.1166 75.7101 16.8463 73.2885 15.9053L72.9263 16.8374L72.5641 17.7694C74.7456 18.6173 76.5776 19.7407 78.4186 21.5815L79.1256 20.8744ZM72.9263 16.8374L73.2885 15.9052C70.9491 14.9962 68.2963 14.3859 64.4761 14.2116L64.4305 15.2106L64.3849 16.2095C68.0154 16.3752 70.4511 16.9484 72.5641 17.7695L72.9263 16.8374ZM64.4305 15.2106L64.476 14.2116C60.7201 14.0403 59.5103 14 50.0001 14V15V16C59.5005 16 60.6746 16.0403 64.3849 16.2095L64.4305 15.2106ZM50.0001 21.3063V22.3063C59.341 22.3063 60.4299 22.342 64.0974 22.5093L64.143 21.5104L64.1886 20.5114C60.4748 20.342 59.3497 20.3063 50.0001 20.3063V21.3063ZM64.143 21.5104L64.0975 22.5093C67.3997 22.6599 69.1461 23.2069 70.2797 23.6475L70.6419 22.7155L71.0042 21.7834C69.6714 21.2654 67.7113 20.672 64.1885 20.5114L64.143 21.5104ZM70.6419 22.7155L70.2797 23.6475C71.7859 24.2329 72.8339 24.9153 73.9592 26.0406L74.6663 25.3336L75.3735 24.6265C74.0494 23.3024 72.7657 22.468 71.0042 21.7834L70.6419 22.7155ZM74.6663 25.3336L73.9592 26.0407C75.0847 27.1661 75.7671 28.2142 76.3525 29.7203L77.2845 29.358L78.2166 28.9957C77.532 27.2344 76.6976 25.9506 75.3734 24.6264L74.6663 25.3336ZM77.2845 29.358L76.3525 29.7202C76.7931 30.8539 77.3401 32.6004 77.4906 35.9025L78.4896 35.857L79.4886 35.8115C79.328 32.2888 78.7346 30.3286 78.2166 28.9957L77.2845 29.358ZM78.4896 35.857L77.4907 35.9026C77.658 39.5701 77.6937 40.659 77.6937 50H78.6937H79.6937C79.6937 40.6503 79.658 39.5252 79.4886 35.8114L78.4896 35.857ZM78.6937 50H77.6937C77.6937 59.341 77.658 60.4299 77.4907 64.0974L78.4896 64.143L79.4886 64.1886C79.658 60.4748 79.6937 59.3497 79.6937 50H78.6937ZM78.4896 64.143L77.4906 64.0975C77.3401 67.3997 76.7931 69.1461 76.3525 70.2797L77.2845 70.6419L78.2166 71.0042C78.7346 69.6714 79.328 67.7113 79.4886 64.1885L78.4896 64.143ZM77.2845 70.6419L76.3525 70.2797C75.7671 71.7859 75.0848 72.8339 73.9593 73.9592L74.6663 74.6663L75.3734 75.3735C76.6976 74.0495 77.532 72.7657 78.2166 71.0042L77.2845 70.6419ZM74.6663 74.6663L73.9592 73.9593C72.8339 75.0847 71.7858 75.7671 70.2797 76.3525L70.642 77.2845L71.0043 78.2166C72.7656 77.532 74.0494 76.6976 75.3735 75.3734L74.6663 74.6663ZM70.642 77.2845L70.2798 76.3525C69.1461 76.7931 67.3996 77.3401 64.0975 77.4906L64.143 78.4896L64.1885 79.4886C67.7112 79.328 69.6714 78.7346 71.0043 78.2166L70.642 77.2845ZM64.143 78.4896L64.0974 77.4907C60.4305 77.658 59.3418 77.6937 50 77.6937V78.6937V79.6937C59.3504 79.6937 60.4754 79.658 64.1886 79.4886L64.143 78.4896ZM50 78.6937V77.6937C40.6582 77.6937 39.5697 77.658 35.9026 77.4906L35.857 78.4895L35.8114 79.4885C39.5248 79.658 40.6496 79.6937 50 79.6937V78.6937ZM35.857 78.4895L35.9025 77.4905C32.6002 77.3401 30.8539 76.7931 29.7203 76.3525L29.3581 77.2845L28.9958 78.2166C30.3286 78.7346 32.2887 79.328 35.8115 79.4885L35.857 78.4895ZM29.3581 77.2845L29.7203 76.3525C28.2141 75.7671 27.1661 75.0848 26.0408 73.9593L25.3337 74.6663L24.6265 75.3734C25.9505 76.6976 27.2343 77.532 28.9958 78.2166L29.3581 77.2845ZM25.3337 74.6663L26.0408 73.9592C24.9153 72.8339 24.2329 71.7857 23.6475 70.2797L22.7155 70.642L21.7834 71.0043C22.468 72.7656 23.3025 74.0495 24.6266 75.3735L25.3337 74.6663ZM22.7155 70.642L23.6475 70.2798C23.2069 69.1461 22.66 67.3996 22.5093 64.0974L21.5104 64.143L20.5114 64.1886C20.6721 67.7112 21.2653 69.6714 21.7834 71.0043L22.7155 70.642ZM21.5104 64.143L22.5093 64.0974C22.342 60.4299 22.3063 59.341 22.3063 50H21.3063H20.3063C20.3063 59.3497 20.342 60.4748 20.5114 64.1886L21.5104 64.143ZM21.3063 50H22.3063C22.3063 40.659 22.342 39.5701 22.5093 35.9026L21.5104 35.857L20.5114 35.8114C20.342 39.5252 20.3063 40.6503 20.3063 50H21.3063ZM21.5104 35.857L22.5093 35.9026C22.66 32.6002 23.2069 30.8539 23.6475 29.7203L22.7155 29.3581L21.7834 28.9958C21.2653 30.3286 20.6721 32.2887 20.5114 35.8114L21.5104 35.857ZM22.7155 29.3581L23.6475 29.7203C24.2329 28.2142 24.9153 27.1661 26.0407 26.0408L25.3336 25.3337L24.6265 24.6266C23.3025 25.9505 22.468 27.2343 21.7834 28.9958L22.7155 29.3581ZM25.3336 25.3337L26.0407 26.0408C27.1661 24.9153 28.2142 24.2329 29.7203 23.6475L29.358 22.7155L28.9957 21.7834C27.2344 22.468 25.9506 23.3024 24.6264 24.6266L25.3336 25.3337ZM29.358 22.7155L29.7202 23.6475C30.8539 23.2069 32.6004 22.6599 35.9025 22.5093L35.857 21.5104L35.8115 20.5114C32.2888 20.672 30.3286 21.2654 28.9957 21.7834L29.358 22.7155ZM35.857 21.5104L35.9026 22.5093C39.5701 22.342 40.659 22.3063 50 22.3063V21.3063V20.3063C40.6503 20.3063 39.5252 20.342 35.8114 20.5114L35.857 21.5104Z" fill="black" mask="url(#path-2-inside-1_130_245)"/>
<mask id="path-4-inside-2_130_245" fill="white">
<path d="M50.0001 61.6667C43.5566 61.6667 38.3333 56.4434 38.3333 50.0001C38.3333 43.5566 43.5566 38.3333 50.0001 38.3333C56.4434 38.3333 61.6667 43.5566 61.6667 50.0001C61.6667 56.4434 56.4434 61.6667 50.0001 61.6667ZM50.0001 32.027C40.0738 32.027 32.0271 40.0737 32.0271 50.0001C32.0271 59.9262 40.0738 67.9729 50.0001 67.9729C59.9263 67.9729 67.973 59.9262 67.973 50.0001C67.973 40.0737 59.9263 32.027 50.0001 32.027ZM72.8832 31.3169C72.8832 33.6366 71.0027 35.5169 68.6831 35.5169C66.3636 35.5169 64.4831 33.6366 64.4831 31.3169C64.4831 28.9973 66.3636 27.1168 68.6831 27.1168C71.0027 27.1168 72.8832 28.9973 72.8832 31.3169Z"/>
</mask>
<path d="M50.0001 61.6667C43.5566 61.6667 38.3333 56.4434 38.3333 50.0001C38.3333 43.5566 43.5566 38.3333 50.0001 38.3333C56.4434 38.3333 61.6667 43.5566 61.6667 50.0001C61.6667 56.4434 56.4434 61.6667 50.0001 61.6667ZM50.0001 32.027C40.0738 32.027 32.0271 40.0737 32.0271 50.0001C32.0271 59.9262 40.0738 67.9729 50.0001 67.9729C59.9263 67.9729 67.973 59.9262 67.973 50.0001C67.973 40.0737 59.9263 32.027 50.0001 32.027ZM72.8832 31.3169C72.8832 33.6366 71.0027 35.5169 68.6831 35.5169C66.3636 35.5169 64.4831 33.6366 64.4831 31.3169C64.4831 28.9973 66.3636 27.1168 68.6831 27.1168C71.0027 27.1168 72.8832 28.9973 72.8832 31.3169Z" fill="#100F0D"/>
<path d="M50.0001 61.6667V60.6667C44.1089 60.6667 39.3333 55.8911 39.3333 50.0001H38.3333H37.3333C37.3333 56.9957 43.0043 62.6667 50.0001 62.6667V61.6667ZM38.3333 50.0001H39.3333C39.3333 44.1089 44.1089 39.3333 50.0001 39.3333V38.3333V37.3333C43.0043 37.3333 37.3333 43.0043 37.3333 50.0001H38.3333ZM50.0001 38.3333V39.3333C55.8911 39.3333 60.6667 44.1089 60.6667 50.0001H61.6667H62.6667C62.6667 43.0043 56.9957 37.3333 50.0001 37.3333V38.3333ZM61.6667 50.0001H60.6667C60.6667 55.8911 55.8911 60.6667 50.0001 60.6667V61.6667V62.6667C56.9957 62.6667 62.6667 56.9956 62.6667 50.0001H61.6667ZM50.0001 32.027V31.027C39.5215 31.027 31.0271 39.5214 31.0271 50.0001H32.0271H33.0271C33.0271 40.626 40.626 33.027 50.0001 33.027V32.027ZM32.0271 50.0001H31.0271C31.0271 60.4785 39.5215 68.9729 50.0001 68.9729V67.9729V66.9729C40.626 66.9729 33.0271 59.3739 33.0271 50.0001H32.0271ZM50.0001 67.9729V68.9729C60.4785 68.9729 68.973 60.4785 68.973 50.0001H67.973H66.973C66.973 59.3739 59.374 66.9729 50.0001 66.9729V67.9729ZM67.973 50.0001H68.973C68.973 39.5214 60.4786 31.027 50.0001 31.027V32.027V33.027C59.374 33.027 66.973 40.626 66.973 50.0001H67.973ZM72.8832 31.3169H71.8832C71.8832 33.0843 70.4504 34.5169 68.6831 34.5169V35.5169V36.5169C71.5549 36.5169 73.8832 34.1889 73.8832 31.3169H72.8832ZM68.6831 35.5169V34.5169C66.9159 34.5169 65.4831 33.0843 65.4831 31.3169H64.4831H63.4831C63.4831 34.1889 65.8114 36.5169 68.6831 36.5169V35.5169ZM64.4831 31.3169H65.4831C65.4831 29.5496 66.9159 28.1168 68.6831 28.1168V27.1168V26.1168C65.8113 26.1168 63.4831 28.445 63.4831 31.3169H64.4831ZM68.6831 27.1168V28.1168C70.4504 28.1168 71.8832 29.5496 71.8832 31.3169H72.8832H73.8832C73.8832 28.445 71.555 26.1168 68.6831 26.1168V27.1168Z" fill="black" mask="url(#path-4-inside-2_130_245)"/>
</svg>
