<svg width="322" height="387" viewBox="0 0 322 387" fill="none" xmlns="http://www.w3.org/2000/svg">
<line x1="264.217" y1="2.13792" x2="286.857" y2="369.858" stroke="#9B9B9B" stroke-width="2"/>
<line x1="228.495" y1="4.33729" x2="251.134" y2="372.058" stroke="#9B9B9B" stroke-width="2"/>
<line x1="153.289" y1="8.96746" x2="175.929" y2="376.688" stroke="#9B9B9B" stroke-width="2"/>
<line x1="190.892" y1="6.65236" x2="213.532" y2="374.373" stroke="#9B9B9B" stroke-width="2"/>
<line x1="115.686" y1="11.2826" x2="138.326" y2="379.003" stroke="#9B9B9B" stroke-width="2"/>
<line x1="78.0837" y1="13.5977" x2="100.723" y2="381.318" stroke="#9B9B9B" stroke-width="2"/>
<line x1="42.3611" y1="15.797" x2="65.0007" y2="383.518" stroke="#9B9B9B" stroke-width="2"/>
<line x1="300.777" y1="29.812" x2="1.83546" y2="48.2171" stroke="#9B9B9B" stroke-width="2"/>
<line x1="302.467" y1="57.2538" x2="3.52492" y2="75.6589" stroke="#9B9B9B" stroke-width="2"/>
<line x1="317.673" y1="304.23" x2="18.7307" y2="322.635" stroke="#9B9B9B" stroke-width="2"/>
<line x1="319.362" y1="331.672" x2="20.4202" y2="350.077" stroke="#9B9B9B" stroke-width="2"/>
<line x1="314.378" y1="250.719" x2="15.4361" y2="269.124" stroke="#9B9B9B" stroke-width="2"/>
<line x1="315.983" y1="276.788" x2="17.0412" y2="295.194" stroke="#9B9B9B" stroke-width="2"/>
<line x1="310.999" y1="195.835" x2="12.0571" y2="214.24" stroke="#9B9B9B" stroke-width="2"/>
<line x1="312.688" y1="223.277" x2="13.7466" y2="241.682" stroke="#9B9B9B" stroke-width="2"/>
<line x1="307.62" y1="140.951" x2="8.67799" y2="159.357" stroke="#9B9B9B" stroke-width="2"/>
<line x1="309.309" y1="168.393" x2="10.3675" y2="186.798" stroke="#9B9B9B" stroke-width="2"/>
<line x1="304.241" y1="86.0678" x2="5.29896" y2="104.473" stroke="#9B9B9B" stroke-width="2"/>
<line x1="305.93" y1="113.51" x2="6.98848" y2="131.915" stroke="#9B9B9B" stroke-width="2"/>
<mask id="path-20-inside-1_145_118" fill="white">
<path d="M154.674 119C160.197 119 164.674 123.477 164.674 129V136.959H241.041C246.564 136.959 251.041 141.436 251.041 146.959V243C251.041 248.523 246.564 253 241.041 253H81.4536C75.9308 253 71.4536 248.523 71.4536 243V129C71.4536 123.477 75.9308 119 81.4536 119H154.674Z"/>
</mask>
<path d="M154.674 119C160.197 119 164.674 123.477 164.674 129V136.959H241.041C246.564 136.959 251.041 141.436 251.041 146.959V243C251.041 248.523 246.564 253 241.041 253H81.4536C75.9308 253 71.4536 248.523 71.4536 243V129C71.4536 123.477 75.9308 119 81.4536 119H154.674Z" fill="#F482A3"/>
<path d="M164.674 136.959H163.674V137.959H164.674V136.959ZM241.041 136.959L241.042 135.959H241.041V136.959ZM241.041 253L241.041 254L241.042 254L241.041 253ZM81.4536 253L81.4536 254H81.4536V253ZM154.674 119V120C159.645 120 163.674 124.029 163.674 129H164.674H165.674C165.674 122.925 160.749 118 154.674 118V119ZM164.674 129H163.674V136.959H164.674H165.674V129H164.674ZM164.674 136.959V137.959H241.041V136.959V135.959H164.674V136.959ZM241.041 136.959L241.041 137.959C246.012 137.959 250.041 141.989 250.041 146.959H251.041H252.041C252.041 140.884 247.116 135.959 241.042 135.959L241.041 136.959ZM251.041 146.959H250.041V243H251.041H252.041V146.959H251.041ZM251.041 243H250.041C250.041 247.97 246.012 252 241.041 252L241.041 253L241.042 254C247.116 254 252.041 249.075 252.041 243H251.041ZM241.041 253V252H81.4536V253V254H241.041V253ZM81.4536 253L81.4536 252C76.483 252 72.4536 247.971 72.4536 243H71.4536H70.4536C70.4536 249.075 75.3785 254 81.4536 254L81.4536 253ZM71.4536 243H72.4536V129H71.4536H70.4536V243H71.4536ZM71.4536 129H72.4536C72.4536 124.029 76.483 120 81.4536 120V119V118C75.3785 118 70.4536 122.925 70.4536 129H71.4536ZM81.4536 119V120H154.674V119V118H81.4536V119Z" fill="black" mask="url(#path-20-inside-1_145_118)"/>
<rect x="81.5" y="145.5" width="161" height="94" rx="10.5" fill="white" stroke="black"/>
<rect x="89.5" y="149.5" width="161" height="94" rx="10.5" fill="white" stroke="black"/>
<path d="M100.941 159.562H259.586C265.687 159.562 270.18 165.22 268.859 171.126L268.792 171.408L249.952 245.346C248.88 249.555 245.089 252.5 240.746 252.5H81.0469C74.7962 252.5 70.2489 246.568 71.873 240.532L91.7676 166.593C92.849 162.574 96.4128 159.744 100.54 159.571L100.941 159.562Z" fill="#F482A3" stroke="black"/>
</svg>
