<svg width="191" height="128" viewBox="0 0 191 128" fill="none" xmlns="http://www.w3.org/2000/svg">
<g filter="url(#filter0_d_156_66)">
<mask id="path-1-inside-1_156_66" fill="white">
<path d="M148.167 0C153.272 0.000117052 157.557 3.84507 158.108 8.91992L160.507 31H177C182.523 31 187 35.4772 187 41V114C187 119.523 182.523 124 177 124H10C4.47715 124 8.8588e-08 119.523 0 114V41C8.3756e-07 35.4772 4.47715 31 10 31H24.9004L27.0996 9.00488C27.6108 3.89293 31.9123 3.56589e-05 37.0498 0H148.167Z"/>
</mask>
<path d="M148.167 0C153.272 0.000117052 157.557 3.84507 158.108 8.91992L160.507 31H177C182.523 31 187 35.4772 187 41V114C187 119.523 182.523 124 177 124H10C4.47715 124 8.8588e-08 119.523 0 114V41C8.3756e-07 35.4772 4.47715 31 10 31H24.9004L27.0996 9.00488C27.6108 3.89293 31.9123 3.56589e-05 37.0498 0H148.167Z" fill="#F482A3"/>
<path d="M148.167 0L148.167 -1H148.167V0ZM158.108 8.91992L159.103 8.81193V8.81192L158.108 8.91992ZM160.507 31L159.513 31.108L159.61 32H160.507V31ZM187 41H188H187ZM187 114H188H187ZM0 114H-1H0ZM0 41H-1H0ZM24.9004 31V32H25.8054L25.8954 31.0995L24.9004 31ZM27.0996 9.00488L26.1046 8.90537L26.1046 8.90539L27.0996 9.00488ZM37.0498 0V-1H37.0498L37.0498 0ZM148.167 0L148.167 1C152.761 1.00011 156.618 4.46058 157.114 9.02793L158.108 8.91992L159.103 8.81192C158.496 3.22956 153.782 -0.999871 148.167 -1L148.167 0ZM158.108 8.91992L157.114 9.02791L159.513 31.108L160.507 31L161.501 30.892L159.103 8.81193L158.108 8.91992ZM160.507 31V32H177V31V30H160.507V31ZM177 31V32C181.971 32 186 36.0294 186 41H187H188C188 34.9249 183.075 30 177 30V31ZM187 41H186V114H187H188V41H187ZM187 114H186C186 118.971 181.971 123 177 123V124V125C183.075 125 188 120.075 188 114H187ZM177 124V123H10V124V125H177V124ZM10 124V123C5.02944 123 1 118.971 1 114H0H-1C-1 120.075 3.92487 125 10 125V124ZM0 114H1V41H0H-1V114H0ZM0 41H1C1 36.0294 5.02944 32 10 32V31V30C3.92487 30 -0.999999 34.9249 -1 41H0ZM10 31V32H24.9004V31V30H10V31ZM24.9004 31L25.8954 31.0995L28.0946 9.10437L27.0996 9.00488L26.1046 8.90539L23.9054 30.9005L24.9004 31ZM27.0996 9.00488L28.0946 9.10439C28.5548 4.50362 32.4261 1.00003 37.0498 1L37.0498 0L37.0498 -1C31.3986 -0.999961 26.6669 3.28223 26.1046 8.90537L27.0996 9.00488ZM37.0498 0V1H148.167V0V-1H37.0498V0Z" fill="black" mask="url(#path-1-inside-1_156_66)"/>
<circle cx="93.5" cy="65.5" r="34" fill="black" stroke="black"/>
<circle cx="93" cy="66" r="28.5" fill="#FAF3EB" stroke="black"/>
<circle cx="93.5" cy="65.5" r="24" fill="black" stroke="black"/>
</g>
<defs>
<filter id="filter0_d_156_66" x="0" y="0" width="191" height="128" filterUnits="userSpaceOnUse" color-interpolation-filters="sRGB">
<feFlood flood-opacity="0" result="BackgroundImageFix"/>
<feColorMatrix in="SourceAlpha" type="matrix" values="0 0 0 0 0 0 0 0 0 0 0 0 0 0 0 0 0 0 127 0" result="hardAlpha"/>
<feOffset dx="4" dy="4"/>
<feComposite in2="hardAlpha" operator="out"/>
<feColorMatrix type="matrix" values="0 0 0 0 0 0 0 0 0 0 0 0 0 0 0 0 0 0 1 0"/>
<feBlend mode="normal" in2="BackgroundImageFix" result="effect1_dropShadow_156_66"/>
<feBlend mode="normal" in="SourceGraphic" in2="effect1_dropShadow_156_66" result="shape"/>
</filter>
</defs>
</svg>
