<svg width="206" height="138" viewBox="0 0 206 138" fill="none" xmlns="http://www.w3.org/2000/svg">
<g filter="url(#filter0_d_152_300)">
<mask id="path-1-inside-1_152_300" fill="white">
<path d="M86.6743 0C92.1972 0 96.6743 4.47715 96.6743 10V17.959H173.042C178.564 17.9591 183.042 22.4362 183.042 27.959V124C183.042 129.523 178.564 134 173.042 134H13.4536C7.93077 134 3.45361 129.523 3.45361 124V10C3.45361 4.47715 7.93077 0 13.4536 0H86.6743Z"/>
</mask>
<path d="M86.6743 0C92.1972 0 96.6743 4.47715 96.6743 10V17.959H173.042C178.564 17.9591 183.042 22.4362 183.042 27.959V124C183.042 129.523 178.564 134 173.042 134H13.4536C7.93077 134 3.45361 129.523 3.45361 124V10C3.45361 4.47715 7.93077 0 13.4536 0H86.6743Z" fill="#F482A3"/>
<path d="M96.6743 17.959H95.6743V18.959H96.6743V17.959ZM173.042 17.959L173.042 16.959H173.042V17.959ZM173.042 134V135H173.042L173.042 134ZM13.4536 134L13.4536 135H13.4536V134ZM86.6743 0V1C91.6449 1 95.6743 5.02944 95.6743 10H96.6743H97.6743C97.6743 3.92487 92.7495 -1 86.6743 -1V0ZM96.6743 10H95.6743V17.959H96.6743H97.6743V10H96.6743ZM96.6743 17.959V18.959H173.042V17.959V16.959H96.6743V17.959ZM173.042 17.959L173.041 18.959C178.012 18.9591 182.042 22.9885 182.042 27.959H183.042H184.042C184.042 21.8839 179.117 16.9591 173.042 16.959L173.042 17.959ZM183.042 27.959H182.042V124H183.042H184.042V27.959H183.042ZM183.042 124H182.042C182.042 128.97 178.012 133 173.041 133L173.042 134L173.042 135C179.116 135 184.042 130.075 184.042 124H183.042ZM173.042 134V133H13.4536V134V135H173.042V134ZM13.4536 134L13.4536 133C8.48306 133 4.45361 128.971 4.45361 124H3.45361H2.45361C2.45361 130.075 7.37849 135 13.4536 135L13.4536 134ZM3.45361 124H4.45361V10H3.45361H2.45361V124H3.45361ZM3.45361 10H4.45361C4.45361 5.02944 8.48305 1 13.4536 1V0V-1C7.37848 -1 2.45361 3.92487 2.45361 10H3.45361ZM13.4536 0V1H86.6743V0V-1H13.4536V0Z" fill="black" mask="url(#path-1-inside-1_152_300)"/>
<rect x="13.5" y="26.5" width="161" height="94" rx="10.5" fill="white" stroke="black"/>
<rect x="21.5" y="30.5" width="161" height="94" rx="10.5" fill="white" stroke="black"/>
<path d="M32.9414 40.5619H191.586C197.687 40.5619 202.18 46.2204 200.859 52.1263L200.792 52.4076L181.952 126.346C180.88 130.555 177.089 133.5 172.746 133.5H13.0469C6.89404 133.5 2.39111 127.752 3.80078 121.815L3.87305 121.532L23.7676 47.5931C24.8839 43.4448 28.6455 40.5619 32.9414 40.5619Z" fill="#F482A3" stroke="black"/>
</g>
<defs>
<filter id="filter0_d_152_300" x="3.04089" y="0" width="202.55" height="138" filterUnits="userSpaceOnUse" color-interpolation-filters="sRGB">
<feFlood flood-opacity="0" result="BackgroundImageFix"/>
<feColorMatrix in="SourceAlpha" type="matrix" values="0 0 0 0 0 0 0 0 0 0 0 0 0 0 0 0 0 0 127 0" result="hardAlpha"/>
<feOffset dx="4" dy="4"/>
<feComposite in2="hardAlpha" operator="out"/>
<feColorMatrix type="matrix" values="0 0 0 0 0 0 0 0 0 0 0 0 0 0 0 0 0 0 1 0"/>
<feBlend mode="normal" in2="BackgroundImageFix" result="effect1_dropShadow_152_300"/>
<feBlend mode="normal" in="SourceGraphic" in2="effect1_dropShadow_152_300" result="shape"/>
</filter>
</defs>
</svg>
