<svg width="196" height="185" viewBox="0 0 196 185" fill="none" xmlns="http://www.w3.org/2000/svg">
<g filter="url(#filter0_d_199_37)">
<mask id="path-1-inside-1_199_37" fill="white">
<path d="M180 0C185.523 0 190 4.47715 190 10V122.031C190 127.554 185.523 132.031 180 132.031H123.791L97.5977 177.399C96.4429 179.399 93.5571 179.399 92.4023 177.399L66.209 132.031H10C4.47715 132.031 0 127.554 0 122.031V10C0 4.47715 4.47715 4.02661e-08 10 0H180Z"/>
</mask>
<path d="M180 0C185.523 0 190 4.47715 190 10V122.031C190 127.554 185.523 132.031 180 132.031H123.791L97.5977 177.399C96.4429 179.399 93.5571 179.399 92.4023 177.399L66.209 132.031H10C4.47715 132.031 0 127.554 0 122.031V10C0 4.47715 4.47715 4.02661e-08 10 0H180Z" fill="#F482A3"/>
<path d="M180 132.031V133.031V132.031ZM123.791 132.031V131.031H123.214L122.925 131.531L123.791 132.031ZM97.5977 177.399L98.4636 177.899L98.4637 177.899L97.5977 177.399ZM92.4023 177.399L91.5363 177.899L91.5363 177.899L92.4023 177.399ZM66.209 132.031L67.075 131.531L66.7863 131.031H66.209V132.031ZM10 0V-1V0ZM180 0V1C184.971 1 189 5.02944 189 10H190H191C191 3.92487 186.075 -1 180 -1V0ZM190 10H189V122.031H190H191V10H190ZM190 122.031H189C189 127.002 184.971 131.031 180 131.031V132.031V133.031C186.075 133.031 191 128.106 191 122.031H190ZM180 132.031V131.031H123.791V132.031V133.031H180V132.031ZM123.791 132.031L122.925 131.531L96.7316 176.899L97.5977 177.399L98.4637 177.899L124.657 132.531L123.791 132.031ZM97.5977 177.399L96.7317 176.899C95.9618 178.233 94.0381 178.233 93.2683 176.899L92.4023 177.399L91.5363 177.899C93.076 180.566 96.924 180.566 98.4636 177.899L97.5977 177.399ZM92.4023 177.399L93.2684 176.899L67.075 131.531L66.209 132.031L65.343 132.531L91.5363 177.899L92.4023 177.399ZM66.209 132.031V131.031H10V132.031V133.031H66.209V132.031ZM10 132.031V131.031C5.02944 131.031 1 127.002 1 122.031H0H-1C-1 128.106 3.92487 133.031 10 133.031V132.031ZM0 122.031H1V10H0H-1V122.031H0ZM0 10H1C1 5.02944 5.02944 1 10 1V0V-1C3.92487 -1 -1 3.92487 -1 10H0ZM10 0V1H180V0V-1H10V0Z" fill="black" mask="url(#path-1-inside-1_199_37)"/>
</g>
<path d="M61.2598 74.6797L60.7715 78.6348L52.5684 78.2441L52.4707 74.3379L54.6191 74.0938C54.668 71.8314 54.7087 69.5853 54.7412 67.3555C54.79 65.1257 54.8145 62.8796 54.8145 60.6172C54.8145 60.2103 54.7738 59.7952 54.6924 59.3721C54.6273 58.9489 54.5052 58.5664 54.3262 58.2246C54.1471 57.8665 53.8949 57.5736 53.5693 57.3457C53.2601 57.1178 52.8613 57.0039 52.373 57.0039C51.8848 57.0039 51.4453 57.126 51.0547 57.3701C50.6803 57.598 50.3467 57.8991 50.0537 58.2734C49.777 58.6478 49.5329 59.0791 49.3213 59.5674C49.126 60.0557 48.9632 60.5521 48.833 61.0566C48.7028 61.5612 48.6051 62.0576 48.54 62.5459C48.4749 63.0179 48.4342 63.4329 48.418 63.791C48.3366 65.5163 48.2796 67.2334 48.2471 68.9424C48.2308 70.6514 48.2064 72.3685 48.1738 74.0938H50.3223L50.5664 78.0488L42.1191 78.1465V73.6055L44.5117 73.5078L44.3652 46.5547L40.8008 46.3105L40.8984 42.1602L48.4668 41.916L48.6133 55.7832C48.89 55.3112 49.2318 54.8717 49.6387 54.4648C50.0456 54.0579 50.4932 53.708 50.9814 53.415C51.4697 53.1221 51.9906 52.8942 52.5439 52.7314C53.0973 52.5524 53.6589 52.4629 54.2285 52.4629C54.9609 52.4629 55.5876 52.5931 56.1084 52.8535C56.6292 53.0977 57.0687 53.4313 57.4268 53.8545C57.7848 54.2614 58.0615 54.7497 58.2568 55.3193C58.4684 55.8727 58.6312 56.4587 58.7451 57.0771C58.859 57.6794 58.9323 58.2979 58.9648 58.9326C58.9974 59.5511 59.0137 60.1452 59.0137 60.7148C59.0137 63.026 58.9811 65.321 58.916 67.5996C58.8672 69.8783 58.8184 72.1732 58.7695 74.4844L61.2598 74.6797ZM83.1299 63.2051C83.1299 64.5397 83.0811 65.8418 82.9834 67.1113L72.4854 67.3066C72.4854 67.6484 72.5016 68.0635 72.5342 68.5518C72.5667 69.0238 72.6156 69.5283 72.6807 70.0654C72.762 70.5863 72.8678 71.1071 72.998 71.6279C73.1445 72.1325 73.3317 72.5964 73.5596 73.0195C73.7874 73.4264 74.0641 73.7601 74.3896 74.0205C74.7314 74.2646 75.1383 74.3867 75.6104 74.3867C76.1149 74.3867 76.5462 74.2565 76.9043 73.9961C77.2786 73.7194 77.5798 73.3857 77.8076 72.9951C78.0518 72.5882 78.2389 72.1488 78.3691 71.6768C78.4993 71.2048 78.5889 70.7572 78.6377 70.334H82.8857C82.7393 71.2617 82.4951 72.1976 82.1533 73.1416C81.8115 74.0856 81.3558 74.9401 80.7861 75.7051C80.2165 76.4701 79.5247 77.0967 78.7109 77.585C77.8971 78.057 76.945 78.293 75.8545 78.293C74.7152 78.293 73.7305 78.0814 72.9004 77.6582C72.0866 77.2188 71.3949 76.641 70.8252 75.9248C70.2555 75.2087 69.7917 74.3867 69.4336 73.459C69.0755 72.515 68.7988 71.5465 68.6035 70.5537C68.4245 69.5446 68.3024 68.5355 68.2373 67.5264C68.1722 66.5173 68.1396 65.5814 68.1396 64.7188C68.1396 63.9375 68.1803 63.0911 68.2617 62.1797C68.3594 61.2682 68.514 60.3649 68.7256 59.4697C68.9372 58.5745 69.222 57.7119 69.5801 56.8818C69.9544 56.0518 70.4183 55.3275 70.9717 54.709C71.5251 54.0742 72.1842 53.5697 72.9492 53.1953C73.7142 52.8047 74.6012 52.6094 75.6104 52.6094C77.3356 52.6094 78.6947 52.8861 79.6875 53.4395C80.6803 53.9766 81.429 54.7253 81.9336 55.6855C82.4544 56.6296 82.7799 57.7526 82.9102 59.0547C83.0566 60.3405 83.1299 61.724 83.1299 63.2051ZM78.8818 61.7891C78.8818 61.3008 78.8493 60.7474 78.7842 60.1289C78.7354 59.5104 78.6051 58.9245 78.3936 58.3711C78.1982 57.8177 77.9053 57.3538 77.5146 56.9795C77.124 56.6051 76.6032 56.418 75.9521 56.418C75.3825 56.418 74.9023 56.5482 74.5117 56.8086C74.1211 57.0527 73.7956 57.3783 73.5352 57.7852C73.2747 58.1921 73.0713 58.6641 72.9248 59.2012C72.7783 59.722 72.6725 60.2591 72.6074 60.8125C72.5423 61.3496 72.4935 61.8786 72.4609 62.3994C72.4447 62.9202 72.4365 63.3841 72.4365 63.791H78.7354C78.833 63.1074 78.8818 62.4401 78.8818 61.7891ZM108.589 57.2969L106.245 57.4434L100.435 83.8105L102.437 83.9082V87.9609L94.0381 88.0586L93.8916 84.25L96.2354 84.0059L97.6025 78.1465L91.4502 56.7109H89.2041L89.4482 52.5605L97.6514 52.6582L97.749 56.6133L95.6006 56.8086L99.458 71.5547L102.29 57.0527L100.386 56.8086L100.142 52.9023L108.589 52.8047V57.2969ZM120.059 75.2168C120.059 75.64 119.977 76.0387 119.814 76.4131C119.652 76.7874 119.424 77.113 119.131 77.3896C118.854 77.6663 118.521 77.8861 118.13 78.0488C117.756 78.2116 117.357 78.293 116.934 78.293C116.51 78.293 116.112 78.2116 115.737 78.0488C115.363 77.8861 115.037 77.6663 114.761 77.3896C114.484 77.113 114.264 76.7874 114.102 76.4131C113.939 76.0387 113.857 75.64 113.857 75.2168C113.857 74.7936 113.939 74.3949 114.102 74.0205C114.264 73.6299 114.484 73.2962 114.761 73.0195C115.037 72.7266 115.363 72.4987 115.737 72.3359C116.112 72.1732 116.51 72.0918 116.934 72.0918C117.357 72.0918 117.756 72.1732 118.13 72.3359C118.521 72.4987 118.854 72.7266 119.131 73.0195C119.424 73.2962 119.652 73.6299 119.814 74.0205C119.977 74.3949 120.059 74.7936 120.059 75.2168ZM133.701 75.2168C133.701 75.64 133.62 76.0387 133.457 76.4131C133.294 76.7874 133.066 77.113 132.773 77.3896C132.497 77.6663 132.163 77.8861 131.772 78.0488C131.398 78.2116 130.999 78.293 130.576 78.293C130.153 78.293 129.754 78.2116 129.38 78.0488C129.006 77.8861 128.68 77.6663 128.403 77.3896C128.127 77.113 127.907 76.7874 127.744 76.4131C127.581 76.0387 127.5 75.64 127.5 75.2168C127.5 74.7936 127.581 74.3949 127.744 74.0205C127.907 73.6299 128.127 73.2962 128.403 73.0195C128.68 72.7266 129.006 72.4987 129.38 72.3359C129.754 72.1732 130.153 72.0918 130.576 72.0918C130.999 72.0918 131.398 72.1732 131.772 72.3359C132.163 72.4987 132.497 72.7266 132.773 73.0195C133.066 73.2962 133.294 73.6299 133.457 74.0205C133.62 74.3949 133.701 74.7936 133.701 75.2168ZM147.344 75.2168C147.344 75.64 147.262 76.0387 147.1 76.4131C146.937 76.7874 146.709 77.113 146.416 77.3896C146.139 77.6663 145.806 77.8861 145.415 78.0488C145.041 78.2116 144.642 78.293 144.219 78.293C143.796 78.293 143.397 78.2116 143.022 78.0488C142.648 77.8861 142.323 77.6663 142.046 77.3896C141.769 77.113 141.549 76.7874 141.387 76.4131C141.224 76.0387 141.143 75.64 141.143 75.2168C141.143 74.7936 141.224 74.3949 141.387 74.0205C141.549 73.6299 141.769 73.2962 142.046 73.0195C142.323 72.7266 142.648 72.4987 143.022 72.3359C143.397 72.1732 143.796 72.0918 144.219 72.0918C144.642 72.0918 145.041 72.1732 145.415 72.3359C145.806 72.4987 146.139 72.7266 146.416 73.0195C146.709 73.2962 146.937 73.6299 147.1 74.0205C147.262 74.3949 147.344 74.7936 147.344 75.2168Z" fill="black"/>
<defs>
<filter id="filter0_d_199_37" x="0" y="0" width="196" height="184.899" filterUnits="userSpaceOnUse" color-interpolation-filters="sRGB">
<feFlood flood-opacity="0" result="BackgroundImageFix"/>
<feColorMatrix in="SourceAlpha" type="matrix" values="0 0 0 0 0 0 0 0 0 0 0 0 0 0 0 0 0 0 127 0" result="hardAlpha"/>
<feOffset dx="6" dy="6"/>
<feComposite in2="hardAlpha" operator="out"/>
<feColorMatrix type="matrix" values="0 0 0 0 0 0 0 0 0 0 0 0 0 0 0 0 0 0 1 0"/>
<feBlend mode="normal" in2="BackgroundImageFix" result="effect1_dropShadow_199_37"/>
<feBlend mode="normal" in="SourceGraphic" in2="effect1_dropShadow_199_37" result="shape"/>
</filter>
</defs>
</svg>
